<mxfile host="Electron" agent="Mozilla/5.0 (Windows NT 10.0; Win64; x64) AppleWebKit/537.36 (KHTML, like Gecko) draw.io/24.7.17 Chrome/128.0.6613.36 Electron/32.0.1 Safari/537.36" version="24.7.17">
  <diagram name="Страница — 1" id="MIVl5p1enr49xJksiQ6v">
    <mxGraphModel dx="2074" dy="1196" grid="1" gridSize="10" guides="1" tooltips="1" connect="1" arrows="1" fold="1" page="1" pageScale="1" pageWidth="1169" pageHeight="827" math="0" shadow="0">
      <root>
        <mxCell id="0" />
        <mxCell id="1" parent="0" />
        <mxCell id="6HJuL6y66GhY5XT-_tjK-1" value="&lt;blockquote style=&quot;margin: 0px 0px 0px 40px; border: none; padding: 0px; font-size: 20px;&quot;&gt;&lt;font style=&quot;font-size: 20px;&quot;&gt;&lt;b style=&quot;&quot;&gt;User Story:&amp;nbsp;&lt;br style=&quot;&quot;&gt;&lt;/b&gt;&lt;/font&gt;&lt;font style=&quot;font-size: 20px;&quot;&gt;&lt;em style=&quot;box-sizing: border-box;&quot;&gt;Как пользователь приложения [МегаМаркет],&lt;br style=&quot;&quot;&gt;&lt;/em&gt;&lt;/font&gt;&lt;font style=&quot;font-size: 20px;&quot;&gt;&lt;em style=&quot;box-sizing: border-box;&quot;&gt;Я хочу иметь возможность управлять содержимым корзины,&lt;br style=&quot;&quot;&gt;&lt;/em&gt;&lt;/font&gt;&lt;font style=&quot;font-size: 20px;&quot;&gt;&lt;em style=&quot;box-sizing: border-box;&quot;&gt;Чтобы менять состав заказа в любое время до его оплаты.&lt;/em&gt;&lt;/font&gt;&lt;/blockquote&gt;" style="whiteSpace=wrap;html=1;align=left;strokeWidth=2;fontFamily=Comic Sans MS;fontSize=17;spacing=2;" parent="1" vertex="1">
          <mxGeometry x="253" y="50" width="664" height="140" as="geometry" />
        </mxCell>
        <mxCell id="HA7c1eMe9eumM1eiVlC3-1" value="" style="shape=cylinder3;whiteSpace=wrap;html=1;boundedLbl=1;backgroundOutline=1;size=15;strokeWidth=2;" parent="1" vertex="1">
          <mxGeometry x="822" y="319" width="240" height="400" as="geometry" />
        </mxCell>
        <mxCell id="HA7c1eMe9eumM1eiVlC3-2" value="" style="rounded=1;whiteSpace=wrap;html=1;strokeWidth=2;" parent="1" vertex="1">
          <mxGeometry x="102" y="319" width="240" height="400" as="geometry" />
        </mxCell>
        <mxCell id="HA7c1eMe9eumM1eiVlC3-3" value="" style="rounded=0;whiteSpace=wrap;html=1;strokeWidth=2;" parent="1" vertex="1">
          <mxGeometry x="461.5" y="319" width="240.5" height="400" as="geometry" />
        </mxCell>
        <mxCell id="HA7c1eMe9eumM1eiVlC3-4" value="Frontend&amp;nbsp;&lt;br style=&quot;font-size: 24px;&quot;&gt;(Mobile)" style="text;html=1;align=center;verticalAlign=middle;resizable=0;points=[];autosize=1;strokeColor=none;fillColor=none;fontFamily=Comic Sans MS;fontSize=24;fontStyle=1" parent="1" vertex="1">
          <mxGeometry x="157" y="230" width="130" height="70" as="geometry" />
        </mxCell>
        <mxCell id="HA7c1eMe9eumM1eiVlC3-5" value="Backend&amp;nbsp;&lt;br style=&quot;font-size: 24px;&quot;&gt;(Server)" style="text;html=1;align=center;verticalAlign=middle;resizable=0;points=[];autosize=1;strokeColor=none;fillColor=none;fontFamily=Comic Sans MS;fontSize=24;fontStyle=1" parent="1" vertex="1">
          <mxGeometry x="521.75" y="230" width="120" height="70" as="geometry" />
        </mxCell>
        <mxCell id="HA7c1eMe9eumM1eiVlC3-6" value="Relational database&amp;nbsp;&lt;br style=&quot;font-size: 24px;&quot;&gt;(PostgreSQL)" style="text;html=1;align=center;verticalAlign=middle;resizable=0;points=[];autosize=1;strokeColor=none;fillColor=none;fontFamily=Comic Sans MS;fontSize=24;fontStyle=1" parent="1" vertex="1">
          <mxGeometry x="817" y="230" width="250" height="70" as="geometry" />
        </mxCell>
        <mxCell id="HA7c1eMe9eumM1eiVlC3-7" value="" style="shape=flexArrow;endArrow=classic;startArrow=classic;html=1;rounded=0;exitX=1;exitY=0.5;exitDx=0;exitDy=0;entryX=0;entryY=0.5;entryDx=0;entryDy=0;strokeWidth=1;" parent="1" source="HA7c1eMe9eumM1eiVlC3-2" target="HA7c1eMe9eumM1eiVlC3-3" edge="1">
          <mxGeometry width="100" height="100" relative="1" as="geometry">
            <mxPoint x="357" y="479" as="sourcePoint" />
            <mxPoint x="457" y="379" as="targetPoint" />
          </mxGeometry>
        </mxCell>
        <mxCell id="HA7c1eMe9eumM1eiVlC3-8" value="" style="shape=flexArrow;endArrow=classic;startArrow=classic;html=1;rounded=0;entryX=0;entryY=0.5;entryDx=0;entryDy=0;strokeWidth=1;" parent="1" edge="1">
          <mxGeometry width="100" height="100" relative="1" as="geometry">
            <mxPoint x="702" y="519" as="sourcePoint" />
            <mxPoint x="822" y="518.6" as="targetPoint" />
          </mxGeometry>
        </mxCell>
        <mxCell id="HA7c1eMe9eumM1eiVlC3-9" value="&lt;b style=&quot;font-size: 18px;&quot;&gt;HTTPS&lt;/b&gt;" style="text;html=1;align=center;verticalAlign=middle;resizable=0;points=[];autosize=1;strokeColor=none;fillColor=none;fontSize=18;fontFamily=Comic Sans MS;" parent="1" vertex="1">
          <mxGeometry x="362" y="523" width="80" height="40" as="geometry" />
        </mxCell>
        <mxCell id="HA7c1eMe9eumM1eiVlC3-10" value="&lt;b style=&quot;font-size: 18px;&quot;&gt;JDBC&lt;/b&gt;" style="text;html=1;align=center;verticalAlign=middle;resizable=0;points=[];autosize=1;strokeColor=none;fillColor=none;fontSize=18;fontFamily=Comic Sans MS;" parent="1" vertex="1">
          <mxGeometry x="726" y="523" width="70" height="40" as="geometry" />
        </mxCell>
        <mxCell id="HA7c1eMe9eumM1eiVlC3-11" value="Каталог" style="text;html=1;align=center;verticalAlign=middle;resizable=0;points=[];autosize=1;strokeColor=none;fillColor=none;fontFamily=Comic Sans MS;fontSize=22;fontStyle=0" parent="1" vertex="1">
          <mxGeometry x="167" y="403" width="110" height="40" as="geometry" />
        </mxCell>
        <mxCell id="HA7c1eMe9eumM1eiVlC3-12" value="Корзина" style="text;html=1;align=center;verticalAlign=middle;resizable=0;points=[];autosize=1;strokeColor=none;fillColor=none;fontFamily=Comic Sans MS;fontSize=22;fontStyle=0" parent="1" vertex="1">
          <mxGeometry x="167" y="579" width="110" height="40" as="geometry" />
        </mxCell>
        <mxCell id="HA7c1eMe9eumM1eiVlC3-13" value="Проверка &lt;br style=&quot;font-size: 22px;&quot;&gt;&lt;div style=&quot;font-size: 22px;&quot;&gt;авторизации&lt;/div&gt;" style="text;html=1;align=center;verticalAlign=middle;resizable=0;points=[];autosize=1;strokeColor=none;fillColor=none;fontFamily=Comic Sans MS;fontSize=22;fontStyle=0" parent="1" vertex="1">
          <mxGeometry x="501.75" y="386" width="160" height="70" as="geometry" />
        </mxCell>
        <mxCell id="HA7c1eMe9eumM1eiVlC3-14" value="Проверка&amp;nbsp;&lt;br style=&quot;font-size: 22px;&quot;&gt;&lt;span style=&quot;background-color: initial; font-size: 22px;&quot;&gt;наличия&amp;nbsp;&lt;/span&gt;&lt;span style=&quot;background-color: initial; font-size: 22px;&quot;&gt;Товаров&lt;/span&gt;" style="text;html=1;align=center;verticalAlign=middle;resizable=0;points=[];autosize=1;strokeColor=none;fillColor=none;fontFamily=Comic Sans MS;fontSize=22;fontStyle=0" parent="1" vertex="1">
          <mxGeometry x="481.75" y="582" width="200" height="70" as="geometry" />
        </mxCell>
        <mxCell id="HA7c1eMe9eumM1eiVlC3-15" value="Управление&amp;nbsp;&lt;br style=&quot;font-size: 22px;&quot;&gt;Корзиной" style="text;html=1;align=center;verticalAlign=middle;resizable=0;points=[];autosize=1;strokeColor=none;fillColor=none;fontFamily=Comic Sans MS;fontSize=22;fontStyle=0" parent="1" vertex="1">
          <mxGeometry x="501.75" y="482" width="160" height="70" as="geometry" />
        </mxCell>
        <mxCell id="HA7c1eMe9eumM1eiVlC3-16" value="cart_id" style="text;html=1;align=left;verticalAlign=middle;resizable=0;points=[];autosize=1;strokeColor=none;fillColor=none;fontFamily=Comic Sans MS;fontSize=22;fontStyle=0" parent="1" vertex="1">
          <mxGeometry x="872" y="444" width="100" height="40" as="geometry" />
        </mxCell>
        <mxCell id="HA7c1eMe9eumM1eiVlC3-17" value="user_id" style="text;html=1;align=left;verticalAlign=middle;resizable=0;points=[];autosize=1;strokeColor=none;fillColor=none;fontFamily=Comic Sans MS;fontSize=22;fontStyle=0" parent="1" vertex="1">
          <mxGeometry x="872" y="386" width="100" height="40" as="geometry" />
        </mxCell>
        <mxCell id="HA7c1eMe9eumM1eiVlC3-18" value="product_id" style="text;html=1;align=left;verticalAlign=middle;resizable=0;points=[];autosize=1;strokeColor=none;fillColor=none;fontFamily=Comic Sans MS;fontSize=22;fontStyle=0" parent="1" vertex="1">
          <mxGeometry x="872" y="500" width="140" height="40" as="geometry" />
        </mxCell>
        <mxCell id="HA7c1eMe9eumM1eiVlC3-19" value="product_name" style="text;html=1;align=left;verticalAlign=middle;resizable=0;points=[];autosize=1;strokeColor=none;fillColor=none;fontFamily=Comic Sans MS;fontSize=22;fontStyle=0" parent="1" vertex="1">
          <mxGeometry x="872" y="530" width="170" height="40" as="geometry" />
        </mxCell>
        <mxCell id="HA7c1eMe9eumM1eiVlC3-20" value="product_qty" style="text;html=1;align=left;verticalAlign=middle;resizable=0;points=[];autosize=1;strokeColor=none;fillColor=none;fontFamily=Comic Sans MS;fontSize=22;fontStyle=0" parent="1" vertex="1">
          <mxGeometry x="872" y="590" width="150" height="40" as="geometry" />
        </mxCell>
        <mxCell id="HA7c1eMe9eumM1eiVlC3-21" value="product_desc" style="text;html=1;align=left;verticalAlign=middle;resizable=0;points=[];autosize=1;strokeColor=none;fillColor=none;fontFamily=Comic Sans MS;fontSize=22;fontStyle=0" parent="1" vertex="1">
          <mxGeometry x="872" y="620" width="160" height="40" as="geometry" />
        </mxCell>
        <mxCell id="HA7c1eMe9eumM1eiVlC3-22" value="product_price" style="text;html=1;align=left;verticalAlign=middle;resizable=0;points=[];autosize=1;strokeColor=none;fillColor=none;fontFamily=Comic Sans MS;fontSize=22;fontStyle=0" parent="1" vertex="1">
          <mxGeometry x="872" y="560" width="170" height="40" as="geometry" />
        </mxCell>
        <mxCell id="HA7c1eMe9eumM1eiVlC3-23" value="&lt;b style=&quot;font-size: 18px;&quot;&gt;1&lt;/b&gt;" style="text;html=1;align=center;verticalAlign=middle;resizable=0;points=[];autosize=1;strokeColor=none;fillColor=none;fontSize=18;fontFamily=Comic Sans MS;" parent="1" vertex="1">
          <mxGeometry x="387" y="475" width="30" height="40" as="geometry" />
        </mxCell>
        <mxCell id="HA7c1eMe9eumM1eiVlC3-24" value="&lt;b style=&quot;font-size: 18px;&quot;&gt;2&lt;/b&gt;" style="text;html=1;align=center;verticalAlign=middle;resizable=0;points=[];autosize=1;strokeColor=none;fillColor=none;fontSize=18;fontFamily=Comic Sans MS;" parent="1" vertex="1">
          <mxGeometry x="746" y="475" width="30" height="40" as="geometry" />
        </mxCell>
      </root>
    </mxGraphModel>
  </diagram>
</mxfile>
